<?xml version="1.0" encoding="UTF-8"?>
<svg version="1.1" xmlns="http://www.w3.org/2000/svg" width="512" height="512">
<path d="M0 0 C3.69214318 2.56945388 6.36368174 5.47223218 9.125 9 C12.44712834 13.14990118 15.87741697 17.11604552 19.5 21 C23.77196681 25.58944792 27.7656332 30.33513858 31.6875 35.23046875 C33.73880755 37.68718674 35.87682437 40.01485045 38.0871582 42.328125 C44.39773811 48.95821414 49.52993977 55.99210216 54 64 C54.45246094 64.80928955 54.90492188 65.6185791 55.37109375 66.45239258 C59.75631491 74.73136296 62.72625274 83.32689053 65.57958984 92.21899414 C66.37881093 94.69932698 67.20218623 97.17076968 68.02734375 99.64257812 C68.54834587 101.24431398 69.06792767 102.84651267 69.5859375 104.44921875 C69.95143204 105.53706917 69.95143204 105.53706917 70.3243103 106.64689636 C71.9242196 111.72698952 72.70809936 116.67435357 72 122 C69.97951392 125.28659853 68.29713952 126.59248687 64.61425781 127.74951172 C61.62920211 128.42112287 58.64457268 128.94410577 55.625 129.4375 C53.37919644 129.84471882 51.13441714 130.25762145 48.890625 130.67578125 C47.17842773 130.99409912 47.17842773 130.99409912 45.43164062 131.31884766 C40.02752425 132.39152016 34.70319028 133.7279904 29.375 135.125 C28.43479004 135.36661865 27.49458008 135.6082373 26.52587891 135.85717773 C21.45886609 137.20050179 16.75806669 138.79694994 12 141 C13.2375 141.12955078 13.2375 141.12955078 14.5 141.26171875 C30.16226169 143.16706085 43.44677573 147.98904717 57 156 C57.81082031 156.46664062 58.62164062 156.93328125 59.45703125 157.4140625 C62.54313627 159.36251985 63.87567224 160.65464511 65.125 164.125 C65 167 65 167 63.6875 168.875 C62 170 62 170 60 170 C60.85271484 171.01707031 60.85271484 171.01707031 61.72265625 172.0546875 C81.14341707 195.46335079 89.27934163 216.42731282 87 247 C84.71263431 266.3195036 72.34732066 285.4947539 57.75390625 297.94140625 C38.86188693 312.06352566 16.61686225 318.10493224 -6.75 315.3125 C-29.78519301 311.66609936 -49.68726614 299.43913984 -64 281 C-72 268.94997983 -72 268.94997983 -72 265 C-72.66 265 -73.32 265 -74 265 C-74.06058594 265.85722656 -74.12117188 266.71445312 -74.18359375 267.59765625 C-74.43781348 271.06677785 -74.71280706 274.5334599 -75 278 C-75.06058594 278.76441406 -75.12117188 279.52882813 -75.18359375 280.31640625 C-75.44501029 282.78652578 -75.72183416 284.61607368 -77.19607544 286.65083122 C-79.6819865 288.51006284 -81.39760035 288.40969003 -84.48779297 288.46170044 C-85.62875931 288.48750183 -86.76972565 288.51330322 -87.94526672 288.53988647 C-89.82474251 288.55905624 -89.82474251 288.55905624 -91.7421875 288.57861328 C-93.06119553 288.60314575 -94.38020355 288.62767822 -95.73918152 288.6529541 C-100.11760105 288.73156342 -104.49610557 288.77754766 -108.875 288.8203125 C-110.38508148 288.83639694 -111.89516246 288.85252948 -113.40524292 288.86870956 C-119.69148814 288.93360401 -125.97771053 288.98980169 -132.26420593 289.02357674 C-141.25722978 289.07221747 -150.24634834 289.17151475 -159.23789978 289.34277928 C-165.56843969 289.45921754 -171.89794071 289.51751356 -178.22952271 289.53333843 C-182.00706654 289.54426224 -185.78044574 289.57985906 -189.55682373 289.67764664 C-214.33666862 290.28867402 -214.33666862 290.28867402 -220.229599 284.73445129 C-222.76786317 281.6670941 -224.58589127 278.43336047 -226.17887115 274.79544449 C-227.33706432 272.26298986 -228.91660868 270.10459858 -230.56640625 267.87109375 C-231.56627555 266.39402143 -232.56499675 264.9161712 -233.5625 263.4375 C-234.10567871 262.64811035 -234.64885742 261.8587207 -235.20849609 261.04541016 C-237.77558005 257.31427991 -240.2858208 253.57190176 -242.66015625 249.71484375 C-246.65233107 242.98168846 -246.65233107 242.98168846 -253.0625 238.921875 C-255.81958945 238.65460612 -258.25959419 238.63530721 -261 239 C-261.12955078 240.38058594 -261.12955078 240.38058594 -261.26171875 241.7890625 C-263.27066771 259.88803387 -269.93864518 275.28884803 -282 289 C-282.99966797 290.14275391 -282.99966797 290.14275391 -284.01953125 291.30859375 C-298.81428054 307.14638658 -319.01220042 314.63794306 -340.25 316.24609375 C-363.01974078 316.76083523 -384.3297809 308.44408404 -401 293 C-409.91017644 284.19982574 -416.52106543 273.67611909 -421 262 C-421.39445312 260.98421875 -421.78890625 259.9684375 -422.1953125 258.921875 C-428.80334765 238.68187922 -426.46862061 215.83311492 -417.375 196.875 C-406.34480581 175.29395875 -388.8324276 161.56978058 -366 154 C-345.77766912 147.67617831 -323.79364278 150.91319888 -305 160 C-293.76951393 166.04272605 -283.70673824 174.81763356 -276 185 C-276 185.66 -276 186.32 -276 187 C-271.34022963 184.81450855 -266.68124809 182.62734686 -262.02294922 180.4387207 C-260.442429 179.69641366 -258.86170455 178.9545413 -257.28076172 178.21313477 C-248.80490097 174.2378971 -240.33689341 170.26191546 -232 166 C-232.36351562 165.4652002 -232.72703125 164.93040039 -233.1015625 164.37939453 C-234.73915793 161.96446615 -236.36964824 159.5448239 -238 157.125 C-238.57234375 156.28324219 -239.1446875 155.44148437 -239.734375 154.57421875 C-240.54648437 153.36572266 -240.54648437 153.36572266 -241.375 152.1328125 C-241.87773437 151.38918457 -242.38046875 150.64555664 -242.8984375 149.87939453 C-244 148 -244 148 -244 146 C-244.66 146.33 -245.32 146.66 -246 147 C-285.97095288 151.32840533 -285.97095288 151.32840533 -301.8125 139 C-304.23895017 137.03525493 -306.62427754 135.02565634 -309 133 C-309.90468018 132.23163818 -309.90468018 132.23163818 -310.82763672 131.44775391 C-313.82080412 128.89991727 -316.80046055 126.33697243 -319.7734375 123.765625 C-323.18923672 120.82186334 -326.68170316 117.98996338 -330.2421875 115.22265625 C-332.49612551 113.40609714 -334.6579874 111.54310182 -336.8203125 109.62109375 C-337.50883301 109.02482178 -338.19735352 108.4285498 -338.90673828 107.81420898 C-340.26855448 106.63393651 -341.6144428 105.43494449 -342.94091797 104.21508789 C-347.51147337 100.30974966 -350.64391829 99.39173884 -356.64819336 99.85620117 C-364.86637778 100.35869371 -372.6394634 96.62915148 -378.83984375 91.46875 C-382.88178478 87.58262076 -386.31111547 83.20985663 -389.765625 78.8046875 C-392.28120608 75.64701755 -394.88032388 72.57126694 -397.5 69.5 C-401.51633606 64.78387921 -405.44647545 60.01374578 -409.27734375 55.14453125 C-410.77405321 53.2812807 -412.33291529 51.51915751 -413.9375 49.75 C-416.2715704 46.63790614 -417 44.88235861 -417 41 C-415.6260627 38.12127423 -414.25010563 36.25010563 -412 34 C-407.87497297 33.5086796 -403.71337317 33.62955889 -399.5625 33.625 C-398.42361328 33.60050781 -397.28472656 33.57601562 -396.11132812 33.55078125 C-386.18521326 33.51676829 -377.26870506 35.06790901 -369.91674805 42.16308594 C-369.42859619 42.66614258 -368.94044434 43.16919922 -368.4375 43.6875 C-367.34960271 44.7493585 -366.26105279 45.81054874 -365.171875 46.87109375 C-364.64400391 47.39558105 -364.11613281 47.92006836 -363.57226562 48.46044922 C-361.17929172 50.80363143 -358.68777131 53.02165085 -356.1875 55.25 C-355.37667969 55.97703125 -354.56585938 56.7040625 -353.73046875 57.453125 C-353.15941406 57.96359375 -352.58835937 58.4740625 -352 59 C-350.03906426 58.04533391 -348.1336033 57.08319842 -346.28125 55.9296875 C-340.38074345 52.43596651 -334.73358254 51.99694042 -328 53 C-323.58496485 54.53481252 -319.76815721 56.85456969 -315.859375 59.38671875 C-294.70812448 72.88358315 -269.27666311 77.64638322 -245 82 C-244.6999707 81.38302246 -244.39994141 80.76604492 -244.09082031 80.13037109 C-235.64851113 63.64254881 -216.83420536 47.93309996 -199.4921875 41.70703125 C-164.52233659 31.78611743 -122.04380597 48.49433745 -91.6484375 65.40625 C-88.93164215 66.92955226 -86.22573188 68.47069803 -83.5234375 70.01953125 C-78.802531 72.69594566 -74.27983677 75.07523442 -69 76.4375 C-64.65564669 77.67124384 -61.57841106 79.26910735 -58 82 C-58.45451184 80.26982492 -58.91378857 78.54090123 -59.375 76.8125 C-59.75785156 75.36810547 -59.75785156 75.36810547 -60.1484375 73.89453125 C-60.42945313 72.93933594 -60.71046875 71.98414063 -61 71 C-61.20753906 70.15566406 -61.41507812 69.31132812 -61.62890625 68.44140625 C-63.72230132 64.71385093 -66.92188004 63.21425928 -70.5625 61.125 C-72.01758796 60.2493474 -73.47072684 59.3704476 -74.921875 58.48828125 C-75.9747168 57.85140381 -75.9747168 57.85140381 -77.04882812 57.20166016 C-83.60045066 53.16673947 -89.10176859 49.72851361 -91 42 C-91.38384105 37.02975046 -90.24974122 33.88250235 -87.0625 30.0625 C-83.99504874 26.75387321 -81.82539483 25.73926954 -77.3125 25.375 C-68.90263196 25.47355314 -62.69309064 30.45390124 -56 35 C-54.54245771 35.95823557 -53.08411025 36.91524741 -51.625 37.87109375 C-50.1858843 38.82830448 -48.74834346 39.78788777 -47.3125 40.75 C-46.64130127 41.19706299 -45.97010254 41.64412598 -45.27856445 42.10473633 C-37.5614086 47.41181802 -35.03769717 52.95099736 -32.3125 61.75 C-31.70683577 63.66222291 -31.09888774 65.5737245 -30.48828125 67.484375 C-30.09443237 68.74846191 -30.09443237 68.74846191 -29.69262695 70.03808594 C-29.16673417 71.97705888 -29.16673417 71.97705888 -28 73 C-20.98835213 60.16736144 -17.78882608 48.47197012 -21.546875 33.87597656 C-22.38314505 31.07013756 -23.27433157 28.29536471 -24.27172852 25.54248047 C-25.81567822 21.19375447 -26.55386958 17.60303259 -26 13 C-21.45111111 5.47726123 -9.17460127 -3.08209261 0 0 Z M-382.0625 203.3984375 C-390.03993415 214.11007288 -393.34180136 226.74971153 -392 240 C-389.35594363 254.30623355 -382.7837706 265.38427015 -371 274 C-358.68677773 281.40382139 -345.80849044 284.21712624 -331.6484375 281.3125 C-318.24077204 277.15508435 -307.18273479 269.49097979 -300.57666016 256.95068359 C-297.86604091 251.56755357 -295.88092978 247.02341059 -295 241 C-295.84369141 241.03029297 -296.68738281 241.06058594 -297.55664062 241.09179688 C-305.95181927 241.38788294 -314.34738615 241.64963088 -322.74462891 241.87988281 C-325.4270782 241.95372208 -328.10852539 242.03741255 -330.79052734 242.12792969 C-334.08949669 242.23554977 -337.38744742 242.31049708 -340.6875 242.375 C-341.66460937 242.41302734 -342.64171875 242.45105469 -343.6484375 242.49023438 C-348.23810334 242.54588653 -350.31266059 242.50043132 -354.1171875 239.73046875 C-356.92848432 235.6535051 -356.54035102 233.86315916 -356 229 C-355.01726726 225.80899097 -354.0920136 225.05562575 -351.18115234 223.29589844 C-349.99473145 222.7393457 -348.80831055 222.18279297 -347.5859375 221.609375 C-346.94303268 221.30328812 -346.30012787 220.99720123 -345.63774109 220.68183899 C-343.55531226 219.69321211 -341.46537332 218.72169896 -339.375 217.75 C-337.95436189 217.07873451 -336.53435741 216.4061264 -335.11499023 215.73217773 C-332.33470512 214.41265217 -329.55221358 213.09797585 -326.76806641 211.78662109 C-322.16572551 209.61241029 -317.60571045 207.3574902 -313.0625 205.0625 C-312.42038574 204.73926758 -311.77827148 204.41603516 -311.11669922 204.08300781 C-309.74344915 203.39068546 -308.3715121 202.69575898 -307 202 C-314.04707729 192.72752988 -323.59932954 187.37903791 -335 185 C-353.66833894 183.15015448 -369.80618633 188.90972384 -382.0625 203.3984375 Z M8 188 C9.07410781 193.58659524 10.56553264 198.92080487 12.3828125 204.30859375 C12.60281921 204.96477692 12.82282593 205.62096008 13.04949951 206.29702759 C13.96947572 209.03308484 14.89308851 211.76759529 15.83740234 214.49536133 C22.28049596 233.17587393 22.28049596 233.17587393 18.375 241.4375 C15.62629361 244.40320952 13.86250641 245.76108285 10 247 C4.86723723 247.13602728 -0.11994512 246.54747875 -4 243 C-7.14860962 237.10416787 -9.21359523 230.71969606 -11.234375 224.37109375 C-11.65870819 223.05843285 -11.65870819 223.05843285 -12.09161377 221.71925354 C-12.98237339 218.96013563 -13.86629868 216.19888563 -14.75 213.4375 C-15.35761975 211.55128625 -15.96568861 209.66521711 -16.57421875 207.77929688 C-18.05467045 203.18785146 -19.52900271 198.59448269 -21 194 C-27.72253016 195.42332554 -32.12739201 201.18301642 -35.8125 206.7265625 C-40.62359043 215.26624801 -43.58081851 223.33582624 -43.5 233.1875 C-43.49427979 234.00976074 -43.48855957 234.83202148 -43.48266602 235.67919922 C-43.1401736 247.54535057 -39.05582722 257.24213991 -31 266 C-30.50113281 266.61230469 -30.00226563 267.22460938 -29.48828125 267.85546875 C-22.04494413 276.34874763 -9.73225191 281.43356759 1.359375 282.24609375 C16.07487077 282.74161555 28.61426785 278.77182341 39.5078125 268.67578125 C48.65777521 259.05775114 53.97445442 247.41982432 54.375 234.0625 C53.92772641 219.63792672 48.34713042 207.71518073 38.48828125 197.29296875 C29.63418545 189.13385692 19.5558151 182.32714531 8 188 Z " fill="#C7D2E5" transform="translate(425,98)"/>
<path d="M0 0 C21.85666798 7.53003774 42.50189352 18.90518402 55.625 38.58984375 C59.11859035 37.06039175 61.63547665 34.96368327 64.5 32.46484375 C68.81614251 28.87483558 73.18495862 25.8658572 78.0625 23.08984375 C78.65337402 22.75194824 79.24424805 22.41405273 79.85302734 22.06591797 C82.75401994 20.45886939 85.39895882 19.31109719 88.625 18.58984375 C95.31738281 38.66699219 102.00976562 58.74414062 108.70214844 78.82128906 C108.9416069 79.53935226 109.18106537 80.25741547 109.42778015 80.99723816 C109.88720935 82.37614568 110.34590543 83.75529773 110.80378723 85.13471985 C111.72307256 87.90203302 112.65121365 90.66487037 113.61303711 93.41772461 C115.56113449 99.01165421 116.53449803 103.71308727 115.625 109.58984375 C113.64777707 113.4736745 111.53822591 116.58034936 107.625 118.58984375 C101.93221142 120.14549687 97.72633867 119.75024327 92.44921875 117.18359375 C87.31202606 112.6954254 85.39191915 105.55602041 83.390625 99.26171875 C83.10773621 98.39089661 82.82484741 97.52007446 82.53338623 96.62286377 C81.94154499 94.7953515 81.35348419 92.96661099 80.76904297 91.13671875 C79.87233774 88.33151528 78.96251222 85.53082031 78.05078125 82.73046875 C77.47578868 80.94946839 76.90154331 79.16822659 76.328125 77.38671875 C76.05631409 76.54921082 75.78450317 75.71170288 75.50445557 74.84881592 C75.25709656 74.07080627 75.00973755 73.29279663 74.75488281 72.49121094 C74.53600403 71.8083905 74.31712524 71.12557007 74.09161377 70.42205811 C73.625 68.58984375 73.625 68.58984375 73.625 65.58984375 C62.64723803 71.24505446 56.89130383 81.81461147 53.23144531 93.21191406 C52.24610673 97.07552026 52.0924063 100.80421292 52.125 104.77734375 C52.13072021 105.59960449 52.13644043 106.42186523 52.14233398 107.26904297 C52.55592417 121.59848087 58.70333598 132.06778082 68.875 141.83984375 C78.95149117 150.4572178 90.78790331 153.11719543 103.74609375 152.8984375 C116.31495846 151.89849761 127.35592403 146.42229141 136 137.27734375 C144.88013434 126.54491145 148.90667552 113.43905979 147.625 99.58984375 C145.5399712 86.071907 138.98284142 73.86127512 127.94921875 65.58203125 C122.71271204 62.11999777 117.59805222 59.50572842 111.625 57.58984375 C111.625 56.92984375 111.625 56.26984375 111.625 55.58984375 C112.46160156 55.30262451 113.29820312 55.01540527 114.16015625 54.71948242 C117.29897381 53.64127426 120.43744042 52.56205603 123.57568359 51.48217773 C124.92743483 51.01726162 126.27932002 50.55273475 127.63134766 50.08862305 C129.58792921 49.41690676 131.54399638 48.74370956 133.5 48.0703125 C134.74394531 47.64282715 135.98789062 47.2153418 137.26953125 46.77490234 C139.94123717 45.83132984 142.56255134 44.82872921 145.1875 43.765625 C148.72654691 42.55511009 150.93984399 41.93414013 154.625 42.58984375 C169.34231799 54.12736165 178.80034163 74.49475401 181.625 92.58984375 C183.5530411 117.94985518 178.58701795 139.92619542 162.1796875 159.69140625 C147.90524426 175.88656968 127.24571981 186.1461149 105.625 187.58984375 C82.27636838 188.78257571 60.83367545 181.14927299 43.21484375 165.98828125 C34.44659154 157.86805974 27.841746 149.30020215 22.625 138.58984375 C22.625 137.92984375 22.625 137.26984375 22.625 136.58984375 C21.965 136.58984375 21.305 136.58984375 20.625 136.58984375 C20.56441406 137.44707031 20.50382813 138.30429687 20.44140625 139.1875 C20.18718652 142.6566216 19.91219294 146.12330365 19.625 149.58984375 C19.56441406 150.35425781 19.50382813 151.11867188 19.44140625 151.90625 C19.17998971 154.37636953 18.90316584 156.20591743 17.42892456 158.24067497 C14.9430135 160.09990659 13.22739965 159.99953378 10.13720703 160.05154419 C8.42575752 160.09024628 8.42575752 160.09024628 6.67973328 160.12973022 C5.42674942 160.14251007 4.17376556 160.15528992 2.8828125 160.16845703 C0.90430046 160.20525574 0.90430046 160.20525574 -1.11418152 160.24279785 C-5.49260105 160.32140717 -9.87110557 160.36739141 -14.25 160.41015625 C-15.76008148 160.42624069 -17.27016246 160.44237323 -18.78024292 160.45855331 C-25.06648814 160.52344776 -31.35271053 160.57964544 -37.63920593 160.61342049 C-46.63222978 160.66206122 -55.62134834 160.7613585 -64.61289978 160.93262303 C-70.94343969 161.04906129 -77.27294071 161.10735731 -83.60452271 161.12318218 C-87.38206654 161.13410599 -91.15544574 161.16970281 -94.93182373 161.26749039 C-119.71166862 161.87851777 -119.71166862 161.87851777 -125.604599 156.32429504 C-128.14286325 153.25693775 -129.96088218 150.02320069 -131.55388069 146.38529396 C-132.71207692 143.85279515 -134.29144099 141.69436962 -135.94140625 139.4609375 C-136.94282951 137.98491829 -137.94158392 136.50708441 -138.9375 135.02734375 C-142.01601707 130.4678804 -145.09277741 125.92313384 -148.38671875 121.515625 C-148.85070068 120.89051025 -149.31468262 120.26539551 -149.79272461 119.62133789 C-151.0334844 117.96221673 -152.289592 116.31460391 -153.546875 114.66796875 C-155.62724002 111.16513192 -156.24037809 108.64773276 -156.375 104.58984375 C-155.715 103.59984375 -155.055 102.60984375 -154.375 101.58984375 C-151.75037756 101.32286487 -149.36434067 101.24151391 -146.7421875 101.296875 C-145.99035187 101.30111984 -145.23851624 101.30536469 -144.46389771 101.30973816 C-142.05890315 101.32655205 -139.65474191 101.36420751 -137.25 101.40234375 C-135.62110584 101.41738716 -133.99219856 101.43107617 -132.36328125 101.44335938 C-128.36686566 101.47646421 -124.37107418 101.52826366 -120.375 101.58984375 C-120.58648682 101.05472168 -120.79797363 100.51959961 -121.01586914 99.96826172 C-123.17268403 94.10491581 -123.88879358 88.94148147 -123.8125 82.71484375 C-123.80420166 81.83787842 -123.79590332 80.96091309 -123.78735352 80.05737305 C-123.44315186 66.83439499 -118.16620078 57.9080948 -108.6875 48.90234375 C-100.30759891 41.8671626 -91.29022198 38.41224304 -80.5 38.40234375 C-79.45779297 38.38397461 -79.45779297 38.38397461 -78.39453125 38.36523438 C-73.99807607 38.35281501 -70.45790765 38.97075968 -66.375 40.58984375 C-66.33375 39.68234375 -66.2925 38.77484375 -66.25 37.83984375 C-64.8578789 28.28834618 -58.57869016 19.6876356 -52.375 12.58984375 C-51.86582031 11.9865625 -51.35664063 11.38328125 -50.83203125 10.76171875 C-36.77084052 -4.65351257 -19.05371104 -6.28237794 0 0 Z " fill="#FE6A6A" transform="translate(330.375,226.41015625)"/>
<path d="M0 0 C3.69214318 2.56945388 6.36368174 5.47223218 9.125 9 C12.44712834 13.14990118 15.87741697 17.11604552 19.5 21 C23.77196681 25.58944792 27.7656332 30.33513858 31.6875 35.23046875 C33.73880755 37.68718674 35.87682437 40.01485045 38.0871582 42.328125 C44.39773811 48.95821414 49.52993977 55.99210216 54 64 C54.45246094 64.80928955 54.90492188 65.6185791 55.37109375 66.45239258 C59.75631491 74.73136296 62.72625274 83.32689053 65.57958984 92.21899414 C66.37881093 94.69932698 67.20218623 97.17076968 68.02734375 99.64257812 C68.54834587 101.24431398 69.06792767 102.84651267 69.5859375 104.44921875 C69.82960052 105.17445236 70.07326355 105.89968597 70.3243103 106.64689636 C71.9242196 111.72698952 72.70809936 116.67435357 72 122 C69.97951392 125.28659853 68.29713952 126.59248687 64.61425781 127.74951172 C61.62920211 128.42112287 58.64457268 128.94410577 55.625 129.4375 C53.37919644 129.84471882 51.13441714 130.25762145 48.890625 130.67578125 C47.17842773 130.99409912 47.17842773 130.99409912 45.43164062 131.31884766 C40.02752425 132.39152016 34.70319028 133.7279904 29.375 135.125 C28.43479004 135.36661865 27.49458008 135.6082373 26.52587891 135.85717773 C21.45886609 137.20050179 16.75806669 138.79694994 12 141 C12.825 141.08636719 13.65 141.17273438 14.5 141.26171875 C30.16226169 143.16706085 43.44677573 147.98904717 57 156 C57.81082031 156.46664062 58.62164062 156.93328125 59.45703125 157.4140625 C62.54313627 159.36251985 63.87567224 160.65464511 65.125 164.125 C65 167 65 167 63.890625 168.55078125 C61.28566429 170.54755899 58.78621825 171.16076421 55.625 172.0625 C47.97764453 174.32490028 40.42820006 176.85121252 32.89007568 179.45162964 C31.59759231 179.89735884 30.30466933 180.34181554 29.0112915 180.78494263 C20.8205011 183.55208281 20.8205011 183.55208281 12.81640625 186.8046875 C10 188 10 188 7 188 C5.30545182 182.96589251 3.61489461 177.93046896 1.92797852 172.89379883 C1.35387177 171.1815194 0.7786872 169.46960095 0.20239258 167.75805664 C-0.62704374 165.29407973 -1.45256115 162.82881924 -2.27734375 160.36328125 C-2.66332985 159.22080681 -2.66332985 159.22080681 -3.05711365 158.05525208 C-4.27911238 154.39002446 -5.36235289 150.82257879 -6 147 C-17.26081052 152.57589234 -28.2734223 158.76536812 -37 168 C-40.63010825 166.78996392 -41.262167 165.601591 -43.5 162.5625 C-58.65415109 143.2126641 -84.09985866 129.33933465 -108.59765625 126.1796875 C-113.39155675 125.65834715 -118.1870078 125.29139201 -123 125 C-119.53908327 122.17206457 -115.7312486 120.21294849 -111.75390625 118.2265625 C-111.03830536 117.86600769 -110.32270447 117.50545288 -109.5854187 117.13397217 C-107.24709173 115.95894392 -104.90523825 114.79120615 -102.5625 113.625 C-101.76586945 113.22726379 -100.96923889 112.82952759 -100.14846802 112.41973877 C-89.00469914 106.86384362 -77.79506348 101.48017949 -66.4375 96.375 C-65.8201297 96.09569641 -65.2027594 95.81639282 -64.56668091 95.52862549 C-54.52464538 91 -54.52464538 91 -51 91 C-51.86625 90.030625 -52.7325 89.06125 -53.625 88.0625 C-55.88789746 85.15083606 -57.2272419 82.5626151 -58.171875 79.03515625 C-60.20956236 71.4384324 -61.81520019 66.01035913 -68.67749023 61.6003418 C-71.45762038 60.00474738 -74.26467187 58.47804757 -77.11328125 57.00830078 C-82.23364397 54.27187505 -87.42554989 50.8424817 -90.125 45.5625 C-91.16691355 41.3204234 -91.49194532 38.14339161 -90 34 C-87.84176937 30.74383228 -85.53180192 27.76590096 -82 26 C-73.1921937 24.24175618 -67.11681573 27.59534791 -60 32.28515625 C-58.6663383 33.18962016 -57.3330163 34.09458514 -56 35 C-54.54245771 35.95823557 -53.08411025 36.91524741 -51.625 37.87109375 C-50.1858843 38.82830448 -48.74834346 39.78788777 -47.3125 40.75 C-46.64130127 41.19706299 -45.97010254 41.64412598 -45.27856445 42.10473633 C-37.5614086 47.41181802 -35.03769717 52.95099736 -32.3125 61.75 C-31.70683577 63.66222291 -31.09888774 65.5737245 -30.48828125 67.484375 C-30.22571533 68.32709961 -29.96314941 69.16982422 -29.69262695 70.03808594 C-29.16673417 71.97705888 -29.16673417 71.97705888 -28 73 C-20.98835213 60.16736144 -17.78882608 48.47197012 -21.546875 33.87597656 C-22.38314505 31.07013756 -23.27433157 28.29536471 -24.27172852 25.54248047 C-25.81567822 21.19375447 -26.55386958 17.60303259 -26 13 C-21.45111111 5.47726123 -9.17460127 -3.08209261 0 0 Z " fill="#FDC956" transform="translate(425,98)"/>
<path d="M0 0 C10.03857422 30.11572266 10.03857422 30.11572266 20.07714844 60.23144531 C20.3166069 60.94950851 20.55606537 61.66757172 20.80278015 62.40739441 C21.26220935 63.78630193 21.72090543 65.16545398 22.17878723 66.5448761 C23.09807256 69.31218927 24.02621365 72.07502662 24.98803711 74.82788086 C26.93613449 80.42181046 27.90949803 85.12324352 27 91 C25.02277707 94.88383075 22.91322591 97.99050561 19 100 C13.30721142 101.55565312 9.10133867 101.16039952 3.82421875 98.59375 C-1.31297394 94.10558165 -3.23308085 86.96617666 -5.234375 80.671875 C-5.65870819 79.36564178 -5.65870819 79.36564178 -6.09161377 78.03302002 C-6.68345501 76.20550775 -7.27151581 74.37676724 -7.85595703 72.546875 C-8.75266226 69.74167153 -9.66248778 66.94097656 -10.57421875 64.140625 C-11.14921132 62.35962464 -11.72345669 60.57838284 -12.296875 58.796875 C-12.70459137 57.5406131 -12.70459137 57.5406131 -13.12054443 56.25897217 C-13.36790344 55.48096252 -13.61526245 54.70295288 -13.87011719 53.90136719 C-14.08899597 53.21854675 -14.30787476 52.53572632 -14.53338623 51.83221436 C-15 50 -15 50 -15 47 C-25.97776197 52.65521071 -31.73369617 63.22476772 -35.39355469 74.62207031 C-36.37889327 78.48567651 -36.5325937 82.21436917 -36.5 86.1875 C-36.49427979 87.00976074 -36.48855957 87.83202148 -36.48266602 88.67919922 C-36.06907583 103.00863712 -29.92166402 113.47793707 -19.75 123.25 C-9.67350883 131.86737405 2.16290331 134.52735168 15.12109375 134.30859375 C27.68995846 133.30865386 38.73092403 127.83244766 47.375 118.6875 C56.25513434 107.9550677 60.28167552 94.84921604 59 81 C56.9149712 67.48206325 50.35784142 55.27143137 39.32421875 46.9921875 C34.08771204 43.53015402 28.97305222 40.91588467 23 39 C23 38.34 23 37.68 23 37 C23.83660156 36.71278076 24.67320312 36.42556152 25.53515625 36.12963867 C28.67397381 35.05143051 31.81244042 33.97221228 34.95068359 32.89233398 C36.30243483 32.42741787 37.65432002 31.962891 39.00634766 31.4987793 C40.96292921 30.82706301 42.91899638 30.15386581 44.875 29.48046875 C46.11894531 29.0529834 47.36289062 28.62549805 48.64453125 28.18505859 C51.31623717 27.24148609 53.93755134 26.23888546 56.5625 25.17578125 C60.10154691 23.96526634 62.31484399 23.34429638 66 24 C80.71731799 35.5375179 90.17534163 55.90491026 93 74 C94.9280411 99.36001143 89.96201795 121.33635167 73.5546875 141.1015625 C59.28024426 157.29672593 38.62071981 167.55627115 17 169 C-6.34863162 170.19273196 -27.79132455 162.55942924 -45.41015625 147.3984375 C-53.20524072 140.17946033 -66.19921253 127.52787734 -67.17016602 115.9753418 C-67.22465084 109.65572868 -66.41890545 103.94499997 -64.9375 97.8125 C-64.71416992 96.86834229 -64.49083984 95.92418457 -64.26074219 94.95141602 C-56.54183349 63.12798326 -45.54148985 26.32591314 -16.17675781 7.85302734 C-3.11607332 0 -3.11607332 0 0 0 Z " fill="#566473" transform="translate(419,245)"/>
<path d="M0 0 C12.00357419 11.19822257 12.00357419 11.19822257 13.8125 16.625 C10.06241628 18.46550613 6.30870418 20.29832974 2.55151367 22.12426758 C1.27510998 22.7458896 -0.00029677 23.36956322 -1.2746582 23.99536133 C-3.11148022 24.89691747 -4.95181598 25.79092168 -6.79296875 26.68359375 C-7.89793701 27.22298584 -9.00290527 27.76237793 -10.14135742 28.31811523 C-12.9034475 29.50313312 -15.19984188 30.34505946 -18.1875 30.625 C-20.4765625 28.9296875 -20.4765625 28.9296875 -22.8125 26.5 C-32.01010731 17.68619747 -43.29371928 14.19264037 -55.91674805 14.26147461 C-68.33641049 14.58116618 -79.33970406 19.32736887 -88.47265625 27.7265625 C-97.38647493 37.15688282 -102.15364061 48.9908287 -102.625 61.9375 C-102.22794534 75.88404477 -97.09157965 88.26640283 -87 97.9375 C-75.48974374 107.50319078 -62.78145639 110.64715015 -48.15332031 109.8203125 C-36.9483434 108.70705101 -25.82319468 102.30341291 -18.140625 94.23046875 C-12.48452706 86.6852341 -8.53041787 77.72451435 -6.1875 68.625 C5.15137596 68.02034572 16.45391683 67.43533906 27.8125 67.625 C26.01344282 86.79704218 19.62170702 103.06370182 6.8125 117.625 C5.81283203 118.76775391 5.81283203 118.76775391 4.79296875 119.93359375 C-10.00178054 135.77138658 -30.19970042 143.26294306 -51.4375 144.87109375 C-74.20724078 145.38583523 -95.5172809 137.06908404 -112.1875 121.625 C-121.09767644 112.82482574 -127.70856543 102.30111909 -132.1875 90.625 C-132.77917969 89.10132813 -132.77917969 89.10132813 -133.3828125 87.546875 C-139.99084765 67.30687922 -137.65612061 44.45811492 -128.5625 25.5 C-117.53230581 3.91895875 -100.0199276 -9.80521942 -77.1875 -17.375 C-50.53429841 -25.70984998 -20.72052721 -18.10684369 0 0 Z " fill="#566473" transform="translate(136.1875,269.375)"/>
<path d="M0 0 C1.13888672 -0.02449219 2.27777344 -0.04898438 3.45117188 -0.07421875 C13.37728674 -0.10823171 22.29379494 1.44290901 29.64575195 8.53808594 C30.13390381 9.04114258 30.62205566 9.54419922 31.125 10.0625 C32.21289729 11.1243585 33.30144721 12.18554874 34.390625 13.24609375 C35.18243164 14.03282471 35.18243164 14.03282471 35.99023438 14.83544922 C38.38320828 17.17863143 40.87472869 19.39665085 43.375 21.625 C44.59123047 22.71554688 44.59123047 22.71554688 45.83203125 23.828125 C46.68861328 24.59382813 46.68861328 24.59382813 47.5625 25.375 C49.52343574 24.42033391 51.4288967 23.45819842 53.28125 22.3046875 C59.18175655 18.81096651 64.82891746 18.37194042 71.5625 19.375 C75.97753515 20.90981252 79.79434279 23.22956969 83.703125 25.76171875 C98.55588189 35.23943949 117.27324225 41.81437556 134.72265625 44.296875 C147.73932799 46.23827236 155.98158962 48.15621387 164.09765625 58.921875 C164.73018311 59.81422852 164.73018311 59.81422852 165.37548828 60.72460938 C166.97006616 62.94166953 168.77979395 64.9273379 170.625 66.9375 C172.43676408 69.02730708 174.1624209 71.13706168 175.875 73.3125 C177.40123758 75.46480875 177.40123758 75.46480875 179.5625 76.375 C179.5625 77.035 179.5625 77.695 179.5625 78.375 C178.61890625 78.55675781 177.6753125 78.73851562 176.703125 78.92578125 C170.58872884 80.12287688 164.52495509 81.33954168 158.5 82.9375 C154.08472622 84.08462117 149.71029167 84.84439572 145.19140625 85.46484375 C143.94560791 85.63749756 142.69980957 85.81015137 141.41625977 85.98803711 C140.00364868 86.17958374 140.00364868 86.17958374 138.5625 86.375 C139.29738647 87.4419812 139.29738647 87.4419812 140.04711914 88.53051758 C141.85751724 91.16948697 143.65852525 93.81454372 145.45336914 96.46411133 C146.23252912 97.61020224 147.01539665 98.75378163 147.80200195 99.89477539 C148.9310776 101.53389404 150.04584003 103.18284324 151.16015625 104.83203125 C151.83570557 105.82178955 152.51125488 106.81154785 153.20727539 107.83129883 C153.65449951 108.67072021 154.10172363 109.5101416 154.5625 110.375 C154.2325 111.365 153.9025 112.355 153.5625 113.375 C111.13610513 116.77883684 111.13610513 116.77883684 92.37841797 100.92333984 C91.77916504 100.4123877 91.17991211 99.90143555 90.5625 99.375 C89.65781982 98.60663818 89.65781982 98.60663818 88.73486328 97.82275391 C85.74169588 95.27491727 82.76203945 92.71197243 79.7890625 90.140625 C76.37326328 87.19686334 72.88079684 84.36496338 69.3203125 81.59765625 C67.06637449 79.78109714 64.9045126 77.91810182 62.7421875 75.99609375 C62.05366699 75.39982178 61.36514648 74.8035498 60.65576172 74.18920898 C59.29394552 73.00893651 57.9480572 71.80994449 56.62158203 70.59008789 C52.05102663 66.68474966 48.91858171 65.76673884 42.91430664 66.23120117 C34.69612222 66.73369371 26.9230366 63.00415148 20.72265625 57.84375 C16.68071522 53.95762076 13.25138453 49.58485663 9.796875 45.1796875 C7.28129392 42.02201755 4.68217612 38.94626694 2.0625 35.875 C-1.95383606 31.15887921 -5.88397545 26.38874578 -9.71484375 21.51953125 C-11.21155321 19.6562807 -12.77041529 17.89415751 -14.375 16.125 C-16.7090704 13.01290614 -17.4375 11.25735861 -17.4375 7.375 C-13.41167849 -1.06005459 -8.5226292 0.00936038 0 0 Z " fill="#3A4755" transform="translate(25.4375,131.625)"/>
<path d="M0 0 C22.69898443 7.82023177 42.59644268 19.60977727 56.625 39.58984375 C55.21284926 42.63350846 53.51319532 45.16182579 51.5 47.83984375 C44.7710322 57.38883541 40.07474049 68.0680034 35.8125 78.90234375 C35.53470703 79.60617187 35.25691406 80.31 34.97070312 81.03515625 C32.78061033 86.77948724 31.16570569 92.64198711 29.625 98.58984375 C-0.53850153 99.41079114 -0.53850153 99.41079114 -13.375 94.58984375 C-14.365 94.25984375 -15.355 93.92984375 -16.375 93.58984375 C-16.61992187 94.47414063 -16.86484375 95.3584375 -17.1171875 96.26953125 C-19.65647065 102.97260788 -25.25707882 108.84732002 -31.625 112.15234375 C-41.15001864 116.13043977 -49.88077749 115.23019843 -59.3203125 111.46484375 C-59.99835938 111.17609375 -60.67640625 110.88734375 -61.375 110.58984375 C-60.653125 109.90921875 -59.93125 109.22859375 -59.1875 108.52734375 C-52.38346193 101.68464638 -49.11242398 95.17674514 -48.9375 85.33984375 C-49.06141948 77.447722 -50.61012337 71.62614172 -56.0546875 65.7890625 C-59.54406877 62.66412771 -63.44166394 60.11841693 -67.375 57.58984375 C-69.02715291 55.93769084 -68.58595636 54.05163596 -68.625 51.77734375 C-68.43169523 36.81555437 -62.1068722 23.72431394 -52.375 12.58984375 C-51.86582031 11.9865625 -51.35664063 11.38328125 -50.83203125 10.76171875 C-36.77084052 -4.65351257 -19.05371104 -6.28237794 0 0 Z " fill="#ED5252" transform="translate(330.375,226.41015625)"/>
<path d="M0 0 C0 0.66 0 1.32 0 2 C-0.82078537 2.26930328 -1.64157074 2.53860657 -2.48722839 2.81607056 C-12.18225645 6.12253185 -21.21803569 10.30635202 -30.36328125 14.8984375 C-31.89092737 15.65963441 -33.41877897 16.42041908 -34.94682312 17.18081665 C-38.12355445 18.7640217 -41.29727689 20.35306426 -44.46899414 21.94628906 C-48.5083956 23.974609 -52.55574934 25.98645848 -56.60558796 27.99384117 C-59.75350764 29.55676315 -62.89664538 31.12911548 -66.03850365 32.70418167 C-67.52833388 33.44950313 -69.019677 34.19180932 -70.51262856 34.93085861 C-89.75477082 44.47077302 -99.47027228 54.98376328 -109 74 C-113.35035872 70.3905802 -117.38458294 66.69794875 -121.1875 62.5 C-121.64455322 61.99662109 -122.10160645 61.49324219 -122.57250977 60.97460938 C-126.78698398 56.30310962 -130.88086469 51.52725559 -134.94018555 46.72070312 C-137.00796825 44.27930126 -139.04985564 41.95155458 -141.34765625 39.71875 C-143 38 -143 38 -143 36 C-144.485 35.505 -144.485 35.505 -146 35 C-147.40234375 33.609375 -147.40234375 33.609375 -148.9375 31.75 C-151.22912186 29.03726814 -153.55676548 26.38003946 -155.984375 23.7890625 C-156.51168213 23.22606445 -157.03898926 22.66306641 -157.58227539 22.08300781 C-158.63057809 20.96758186 -159.68172929 19.85482426 -160.73608398 18.74511719 C-163.90581208 15.35841212 -166.52875404 11.9280425 -169 8 C-155.25666585 -11.1759933 -138.16915394 -29.72981472 -114 -34.25 C-75.76890132 -39.61492029 -31.35949486 -20.90632991 0 0 Z " fill="#FDCA57" transform="translate(348,172)"/>
<path d="M0 0 C10.03857422 30.11572266 10.03857422 30.11572266 20.07714844 60.23144531 C20.3166069 60.94950851 20.55606537 61.66757172 20.80278015 62.40739441 C21.26220935 63.78630193 21.72090543 65.16545398 22.17878723 66.5448761 C23.09807256 69.31218927 24.02621365 72.07502662 24.98803711 74.82788086 C26.93613449 80.42181046 27.90949803 85.12324352 27 91 C25.02277707 94.88383075 22.91322591 97.99050561 19 100 C13.30721142 101.55565312 9.10133867 101.16039952 3.82421875 98.59375 C-1.39640325 94.03269266 -3.29163828 86.75945217 -5.3125 80.3671875 C-5.60809814 79.45349396 -5.90369629 78.53980042 -6.20825195 77.59841919 C-7.14619425 74.69292188 -8.07316129 71.78405581 -9 68.875 C-9.62169529 66.94508669 -10.2440852 65.01539699 -10.8671875 63.0859375 C-13.98442413 53.41293349 -17.05175676 43.72599809 -20 34 C-33.4538725 58.58298382 -47.39203524 84.8370298 -40.5 113.625 C-34.3526391 133.65211653 -23.57056745 148.12513463 -5 158 C3.3340148 162.24293601 11.85662246 165.09094315 21 167 C11.97257733 172.24172929 -2.2524746 168.4849778 -11.734375 166.03515625 C-34.58216875 158.99595008 -53.16080759 143.96501517 -64.50390625 122.87109375 C-68.76168173 114.70016691 -67.04246275 106.52630887 -64.9375 97.8125 C-64.71416992 96.86834229 -64.49083984 95.92418457 -64.26074219 94.95141602 C-56.54183349 63.12798326 -45.54148985 26.32591314 -16.17675781 7.85302734 C-3.11607332 0 -3.11607332 0 0 0 Z " fill="#3F4B5A" transform="translate(419,245)"/>
<path d="M0 0 C3.14970487 3.82215941 5.98061225 7.80930417 8.73828125 11.91796875 C9.40406441 12.90389763 9.40406441 12.90389763 10.08329773 13.90974426 C11.49504753 16.0009783 12.90394179 18.09411523 14.3125 20.1875 C15.70698925 22.25709336 17.10210527 24.32625669 18.49850464 26.39456177 C19.40336417 27.73609933 20.30632117 29.07892223 21.20730591 30.42306519 C24.27648229 34.98784962 27.47975925 39.42895893 30.84448242 43.7824707 C32.81078381 47.55595803 32.31808883 50.91380725 31.15234375 54.89453125 C23.78731022 72.58482078 10.97399741 80.81099256 -6.1875 88.0625 C-8.73614928 89.1687716 -11.27993302 90.28607999 -13.82421875 91.40234375 C-14.48255707 91.68968384 -15.14089539 91.97702393 -15.81918335 92.27307129 C-23.03598819 95.43116396 -30.1780493 98.74538498 -37.30740356 102.0954895 C-38.76711072 102.78087958 -40.22778398 103.46421593 -41.68942261 104.14547729 C-49.68199266 107.87180909 -57.4712469 111.74972201 -65.12890625 116.13525391 C-73.10410705 120.66810369 -78.4180503 123.33976623 -87.7578125 120.8984375 C-88.82773437 120.60195312 -89.89765625 120.30546875 -91 120 C-93.45327892 119.73879494 -95.91263877 119.52856661 -98.375 119.375 C-99.45523437 119.30023438 -100.53546875 119.22546875 -101.6484375 119.1484375 C-102.81246094 119.07496094 -102.81246094 119.07496094 -104 119 C-100.53908327 116.17206457 -96.7312486 114.21294849 -92.75390625 112.2265625 C-92.03830536 111.86600769 -91.32270447 111.50545288 -90.5854187 111.13397217 C-88.24709173 109.95894392 -85.90523825 108.79120615 -83.5625 107.625 C-82.76586945 107.22726379 -81.96923889 106.82952759 -81.14846802 106.41973877 C-70.00469914 100.86384362 -58.79506348 95.48017949 -47.4375 90.375 C-46.8201297 90.09569641 -46.2027594 89.81639282 -45.56668091 89.52862549 C-35.52464538 85 -35.52464538 85 -32 85 C-32.86625 84.030625 -33.7325 83.06125 -34.625 82.0625 C-36.88789746 79.15083606 -38.2272419 76.5626151 -39.171875 73.03515625 C-41.20956236 65.4384324 -42.81520019 60.01035913 -49.67749023 55.6003418 C-52.45762038 54.00474738 -55.26467187 52.47804757 -58.11328125 51.00830078 C-63.23364397 48.27187505 -68.42554989 44.8424817 -71.125 39.5625 C-72.16691355 35.3204234 -72.49194532 32.14339161 -71 28 C-68.84176937 24.74383228 -66.53180192 21.76590096 -63 20 C-54.1921937 18.24175618 -48.11681573 21.59534791 -41 26.28515625 C-39.6663383 27.18962016 -38.3330163 28.09458514 -37 29 C-35.54245771 29.95823557 -34.08411025 30.91524741 -32.625 31.87109375 C-31.1858843 32.82830448 -29.74834346 33.78788777 -28.3125 34.75 C-27.64130127 35.19706299 -26.97010254 35.64412598 -26.27856445 36.10473633 C-18.5614086 41.41181802 -16.03769717 46.95099736 -13.3125 55.75 C-12.70683577 57.66222291 -12.09888774 59.5737245 -11.48828125 61.484375 C-11.22571533 62.32709961 -10.96314941 63.16982422 -10.69262695 64.03808594 C-10.16673417 65.97705888 -10.16673417 65.97705888 -9 67 C-1.98835213 54.16736144 1.21117392 42.47197012 -2.546875 27.87597656 C-3.38314505 25.07013756 -4.27433157 22.29536471 -5.27172852 19.54248047 C-6.8105576 15.20817733 -7.38028376 11.59136714 -7 7 C-4.9209015 3.77381267 -3.19960471 2.1330698 0 0 Z " fill="#F3B538" transform="translate(406,104)"/>
<path d="M0 0 C4.76680607 2.99514315 8.80242912 6.51578142 12.53125 10.72265625 C12.53125 11.38265625 12.53125 12.04265625 12.53125 12.72265625 C11.92579346 12.98256348 11.32033691 13.2424707 10.6965332 13.51025391 C-5.69322754 20.57182418 -21.82626447 28.07826575 -37.84228516 35.9453125 C-40.26028225 37.13245505 -42.68178085 38.31192049 -45.10693359 39.484375 C-48.60772705 41.17838406 -52.10145545 42.88620733 -55.59375 44.59765625 C-57.14727173 45.34571533 -57.14727173 45.34571533 -58.73217773 46.10888672 C-75.03485288 54.17183229 -88.00667204 64.9833117 -94.86328125 82.23046875 C-95.80535734 85.04671035 -96.68443885 87.85888855 -97.46875 90.72265625 C-98.30277344 90.56539063 -99.13679688 90.408125 -99.99609375 90.24609375 C-111.0010377 88.5873058 -119.86677757 89.10639065 -129.9921875 93.62890625 C-132.46875 94.72265625 -132.46875 94.72265625 -134.46875 94.72265625 C-134.56389893 94.17246826 -134.65904785 93.62228027 -134.75708008 93.05541992 C-135.66005172 90.09559351 -137.12200241 87.96243494 -138.85546875 85.3984375 C-139.54705078 84.36912109 -140.23863281 83.33980469 -140.95117188 82.27929688 C-141.67884766 81.20873047 -142.40652344 80.13816406 -143.15625 79.03515625 C-143.86458984 77.98392578 -144.57292969 76.93269531 -145.30273438 75.84960938 C-146.00076172 74.81384766 -146.69878906 73.77808594 -147.41796875 72.7109375 C-148.10238037 71.69499512 -148.78679199 70.67905273 -149.49194336 69.63232422 C-150.74865318 67.78256905 -152.01886986 65.94186454 -153.30688477 64.11376953 C-153.85014404 63.33372559 -154.39340332 62.55368164 -154.953125 61.75 C-155.4284668 61.080896 -155.90380859 60.41179199 -156.39355469 59.72241211 C-158.31840447 56.14238383 -158.22158854 52.63893754 -157.46875 48.72265625 C-156.34375 45.78515625 -156.34375 45.78515625 -154.46875 43.72265625 C-151.28125 42.41015625 -151.28125 42.41015625 -148.46875 41.72265625 C-144.28584819 45.79113218 -140.32087972 49.97130095 -136.51171875 54.390625 C-132.25519832 59.24940644 -127.84629205 63.97306271 -123.46875 68.72265625 C-122.65083984 67.16417969 -122.65083984 67.16417969 -121.81640625 65.57421875 C-111.71015107 46.71358703 -99.0240196 37.17300335 -80.109375 27.77734375 C-78.63239652 27.03750289 -77.15565552 26.29718776 -75.67913818 25.556427 C-72.59888184 24.01336869 -69.51584561 22.47605707 -66.43066406 20.94287109 C-62.51446983 18.99614292 -58.60561191 17.03518269 -54.6987648 15.06977654 C-51.65412385 13.54015931 -48.6056438 12.01832123 -45.55602264 10.49866104 C-44.1150408 9.77948638 -42.67520348 9.05801292 -41.23664093 8.33401108 C-12.14737711 -6.28511442 -12.14737711 -6.28511442 0 0 Z " fill="#C7D2E4" transform="translate(361.46875,176.27734375)"/>
<path d="M0 0 C-0.33 0.66 -0.66 1.32 -1 2 C-2.83958242 2.44101648 -4.69886786 2.80029354 -6.5625 3.125 C-18.35477134 5.70374945 -28.92219245 11.3827633 -37.984375 19.3359375 C-40 21 -40 21 -42.140625 21.9765625 C-44.51351282 23.28264781 -44.91627391 24.56393196 -46 27 C-47.299375 28.423125 -47.299375 28.423125 -48.625 29.875 C-62.56472786 45.85967571 -68.0847114 67.08772431 -67.15234375 87.90283203 C-65.85424746 105.77245878 -57.89072964 123.42440535 -45.50390625 136.2578125 C-44 138 -44 138 -44 140 C-43.1028125 140.41185547 -43.1028125 140.41185547 -42.1875 140.83203125 C-40.0926337 141.95054022 -38.70950024 143.0625844 -37 144.6875 C-26.4191233 153.95426354 -13.42154051 158.63185676 0 162 C0 162.33 0 162.66 0 163 C-22.77487301 166.50382662 -45.17950371 161.33594616 -63.9765625 147.8671875 C-76.76676786 137.75482128 -86.14832032 125.25472358 -92 110 C-92.59167969 108.47632813 -92.59167969 108.47632813 -93.1953125 106.921875 C-99.80334765 86.68187922 -97.46862061 63.83311492 -88.375 44.875 C-77.34480581 23.29395875 -59.8324276 9.56978058 -37 2 C-25.08360043 -1.72643423 -12.26697285 -1.88722659 0 0 Z " fill="#3E4B5A" transform="translate(96,250)"/>
<path d="M0 0 C1.27532593 0.18888794 1.27532593 0.18888794 2.57641602 0.3815918 C3.37619873 0.51090088 4.17598145 0.64020996 5 0.7734375 C6.0828125 0.94625244 6.0828125 0.94625244 7.1875 1.12255859 C9 1.625 9 1.625 11 3.625 C10.11699219 4.09808594 9.23398437 4.57117188 8.32421875 5.05859375 C0.17141848 9.51564052 -7.05367351 14.39024842 -14 20.625 C-14.67933594 21.2334375 -15.35867187 21.841875 -16.05859375 22.46875 C-17.80515494 24.12141005 -19.41904516 25.8140881 -21 27.625 C-21.50660156 28.20378906 -22.01320312 28.78257812 -22.53515625 29.37890625 C-26.36199376 34.4849095 -26.55882751 39.21652439 -26.56640625 45.4765625 C-25.40715102 51.92042263 -20.44106402 56.62963285 -16.25 61.4375 C-15.7250293 62.04480957 -15.20005859 62.65211914 -14.65917969 63.27783203 C-10.4831056 68.098835 -6.26543667 72.88283805 -2 77.625 C-3.40647742 80.82667976 -5.09635416 82.85631838 -7.5625 85.3125 C-13.52838328 91.81476545 -17.11074177 99.78346315 -21 107.625 C-25.35035872 104.0155802 -29.38458294 100.32294875 -33.1875 96.125 C-33.64455322 95.62162109 -34.10160645 95.11824219 -34.57250977 94.59960938 C-38.78698398 89.92810962 -42.88086469 85.15225559 -46.94018555 80.34570312 C-49.00796825 77.90430126 -51.04985564 75.57655458 -53.34765625 73.34375 C-55 71.625 -55 71.625 -55 69.625 C-56.485 69.13 -56.485 69.13 -58 68.625 C-59.40234375 67.234375 -59.40234375 67.234375 -60.9375 65.375 C-63.22912186 62.66226814 -65.55676548 60.00503946 -67.984375 57.4140625 C-68.51168213 56.85106445 -69.03898926 56.28806641 -69.58227539 55.70800781 C-70.63057809 54.59258186 -71.68172929 53.47982426 -72.73608398 52.37011719 C-75.90581208 48.98341212 -78.52875404 45.5530425 -81 41.625 C-67.25666585 22.4490067 -50.16915394 3.89518528 -26 -0.625 C-17.01225726 -1.88623824 -8.94384108 -1.34660827 0 0 Z " fill="#F3B537" transform="translate(260,138.375)"/>
<path d="M0 0 C0.70318359 -0.01224609 1.40636719 -0.02449219 2.13085938 -0.03710938 C6.22932735 -0.04863272 9.37811442 0.36333258 13.0625 2.1875 C12.87107422 3.78078125 12.87107422 3.78078125 12.67578125 5.40625 C12.31460661 9.70778909 11.97266589 13.97017552 13.0625 18.1875 C15.54381298 21.02823528 17.97527495 22.56377034 21.22265625 24.45703125 C26.71884605 27.80615378 30.11496665 33.11783328 32.0625 39.1875 C33.10873089 49.94178036 32.00311626 58.20821474 25.4375 66.9375 C20.80576281 72.03122632 13.38986983 75.65250436 6.56640625 76.49609375 C-2.70191318 76.90227508 -10.27578198 74.32088997 -17.28125 68.109375 C-18.9375 66.1875 -18.9375 66.1875 -18.9375 64.1875 C-25.5375 63.8575 -32.1375 63.5275 -38.9375 63.1875 C-42.20350942 55.8389788 -43.60596766 51.87166559 -43.4375 44.3125 C-43.42468994 43.43553467 -43.41187988 42.55856934 -43.39868164 41.6550293 C-42.98622203 28.44285866 -37.72617951 19.50335558 -28.25 10.5 C-19.84347926 3.44247085 -10.82035042 0.00986358 0 0 Z " fill="#3F4B5A" transform="translate(249.9375,264.8125)"/>
<path d="M0 0 C0.495 0.99 0.495 0.99 1 2 C0.34773438 2.44730469 -0.30453125 2.89460937 -0.9765625 3.35546875 C-15.43552926 13.35732039 -26.71686323 26.11425492 -30 44 C-30.62471517 49.13537046 -30.94599475 53.86721559 -30 59 C-28.24726617 61.03353357 -26.74161024 61.76771304 -24.30078125 62.8515625 C-18.61636349 65.6889459 -14.24074707 71.50487388 -12 77.375 C-10.12285805 84.35943077 -9.826809 92.23379654 -12.765625 98.95703125 C-17.80317662 107.29449801 -24.16013231 112.84004178 -33.375 115.75 C-42.24770889 116.59501989 -48.74251626 115.51649498 -57 112 C-56.278125 111.319375 -55.55625 110.63875 -54.8125 109.9375 C-48.00846193 103.09480263 -44.73742398 96.58690139 -44.5625 86.75 C-44.68641948 78.85787825 -46.23512337 73.03629797 -51.6796875 67.19921875 C-55.16906877 64.07428396 -59.06666394 61.52857318 -63 59 C-64.65215291 57.34784709 -64.21095636 55.46179221 -64.25 53.1875 C-64.05669523 38.22571062 -57.7318722 25.13447019 -48 14 C-47.49082031 13.39671875 -46.98164063 12.7934375 -46.45703125 12.171875 C-34.15197676 -1.31811066 -17.42506152 -5.57877464 0 0 Z " fill="#D83941" transform="translate(326,225)"/>
<path d="M0 0 C1.13888672 -0.02449219 2.27777344 -0.04898438 3.45117188 -0.07421875 C13.33007892 -0.10806994 22.27005821 1.42105774 29.59375 8.48608398 C30.32078125 9.23547241 30.32078125 9.23547241 31.0625 10 C32.15564235 11.06702912 33.2494035 12.13342463 34.34375 13.19921875 C34.87871094 13.7307959 35.41367187 14.26237305 35.96484375 14.81005859 C38.42859627 17.22336141 40.994564 19.51033157 43.5625 21.8125 C46.9990053 24.90849791 50.29730927 28.09932712 53.5625 31.375 C59.30274688 36.78429825 65.39607504 41.68597764 71.68920898 46.43017578 C75.1826928 49.10885717 77.94219683 51.78421417 80.5625 55.375 C79.31984375 55.78234375 78.0771875 56.1896875 76.796875 56.609375 C73.135623 57.82597555 69.51066254 59.11916931 65.890625 60.453125 C42.13122278 69.05379605 42.13122278 69.05379605 28.1875 62.75 C20.22721061 58.34154577 15.33987112 52.24808177 9.796875 45.1796875 C7.28129392 42.02201755 4.68217612 38.94626694 2.0625 35.875 C-1.95383606 31.15887921 -5.88397545 26.38874578 -9.71484375 21.51953125 C-11.21155321 19.6562807 -12.77041529 17.89415751 -14.375 16.125 C-16.7090704 13.01290614 -17.4375 11.25735861 -17.4375 7.375 C-13.41167849 -1.06005459 -8.5226292 0.00936038 0 0 Z " fill="#EE5253" transform="translate(25.4375,131.625)"/>
<path d="M0 0 C1.4375 2 1.4375 2 2 5 C1.40966797 6.91015625 1.40966797 6.91015625 0.5546875 9.0625 C-1.21788416 14.12669781 -1.41492577 18.67385999 -1.3125 24 C-1.31733398 25.25683594 -1.31733398 25.25683594 -1.32226562 26.5390625 C-1.27143186 32.50971948 -0.36301629 36.86642668 1 43 C-10.22 43.33 -21.44 43.66 -33 44 C-33.7209045 47.98171738 -33.7209045 47.98171738 -34 52 C-50.83 52.66 -67.66 53.32 -85 54 C-88.01601134 48.97331443 -88.7826099 47.57609554 -88 42 C-83.88337263 35.35705385 -77.7838066 33.17171202 -70.8125 30.125 C-69.58211267 29.57318131 -68.35255692 29.01950523 -67.1237793 28.46411133 C-65.16603934 27.57944673 -63.20784981 26.69596722 -61.24714661 25.81788635 C-53.94982075 22.54758048 -46.72068857 19.13523493 -39.49154663 15.71746826 C-37.38351788 14.72106796 -35.27460521 13.72656938 -33.1652832 12.73291016 C-32.49345505 12.41622375 -31.82162689 12.09953735 -31.12944031 11.77325439 C-29.79455702 11.14490525 -28.45904405 10.51789192 -27.12287903 9.89227295 C-23.51093476 8.19828765 -19.91827296 6.47235348 -16.34130859 4.70556641 C-15.18576729 4.14226372 -15.18576729 4.14226372 -14.00688171 3.56758118 C-12.52186697 2.84311552 -11.04129337 2.10945318 -9.56599426 1.36540222 C-3.77803302 -1.43811228 -3.77803302 -1.43811228 0 0 Z " fill="#E3E8F6" transform="translate(209,285)"/>
<path d="M0 0 C2.1171875 1.53125 2.1171875 1.53125 3.875 3.5 C4.47054687 4.1496875 5.06609375 4.799375 5.6796875 5.46875 C6.11539063 5.9740625 6.55109375 6.479375 7 7 C6.401875 7.433125 5.80375 7.86625 5.1875 8.3125 C0.95204652 11.57984982 -0.78617424 13.44859263 -1.53515625 18.8828125 C-1.44903273 25.72074688 2.71584468 30.51340641 6.5625 35.875 C7.98153478 37.91332077 9.39951016 39.95237949 10.81640625 41.9921875 C11.51137207 42.98444336 12.20633789 43.97669922 12.92236328 44.99902344 C14.99852302 47.99786662 17.03309659 51.01638601 19.02734375 54.0703125 C19.600896 54.94703613 20.17444824 55.82375977 20.76538086 56.72705078 C22 59 22 59 22 62 C20.4609375 63.359375 20.4609375 63.359375 18.375 64.75 C13.19571748 68.43243314 9.5096582 72.7355127 6 78 C5.34 78 4.68 78 4 78 C2.45947266 75.95214844 2.45947266 75.95214844 0.6640625 73.109375 C0.01179688 72.08972656 -0.64046875 71.07007813 -1.3125 70.01953125 C-1.993125 68.94058594 -2.67375 67.86164063 -3.375 66.75 C-4.7115168 64.63768897 -6.05250835 62.52820113 -7.3984375 60.421875 C-7.99317871 59.47924805 -8.58791992 58.53662109 -9.20068359 57.56542969 C-10.94716963 55.0753245 -12.8277849 53.11626159 -15 51 C-16.63874221 48.60491523 -18.20985644 46.2066405 -19.75 43.75 C-23.19510787 38.3265494 -26.69099782 32.94472261 -30.27734375 27.61328125 C-31.00663086 26.52885742 -31.73591797 25.44443359 -32.48730469 24.32714844 C-33.94422508 22.16537087 -35.40446921 20.0058293 -36.86816406 17.84863281 C-37.53428711 16.85831055 -38.20041016 15.86798828 -38.88671875 14.84765625 C-39.48701904 13.96086182 -40.08731934 13.07406738 -40.70581055 12.16040039 C-42 10 -42 10 -42 8 C-41.00371582 7.79636841 -41.00371582 7.79636841 -39.98730469 7.58862305 C-36.90764928 6.95757677 -33.82870111 6.32318597 -30.75 5.6875 C-29.09895264 5.34682495 -29.09895264 5.34682495 -27.41455078 4.99926758 C-21.00912713 3.66516002 -14.66590157 2.25627443 -8.3671875 0.48046875 C-5.43971614 -0.11372098 -2.97990634 -0.29719811 0 0 Z " fill="#A9BBD5" transform="translate(206,210)"/>
<path d="M0 0 C5.35701199 2.48120533 10.12616918 5.68958372 15 9 C16.45754229 9.95823557 17.91588975 10.91524741 19.375 11.87109375 C20.8141157 12.82830448 22.25165654 13.78788777 23.6875 14.75 C24.35869873 15.19706299 25.02989746 15.64412598 25.72143555 16.10473633 C33.31511132 21.32690087 36.00545744 26.87116304 38.8125 35.5 C39.13669922 36.43714844 39.46089844 37.37429687 39.79492188 38.33984375 C40.09591797 39.24863281 40.39691406 40.15742188 40.70703125 41.09375 C41.11659058 42.32641602 41.11659058 42.32641602 41.53442383 43.58398438 C42.07521124 46.39029386 41.79579463 48.26920745 41 51 C36.40517929 56.68824061 28.86241322 61.62372958 22 64 C18.10598134 62.997217 16.14258516 60.27142652 14 57 C13.33494923 55.02635171 12.83401252 53.04310469 12.32885742 51.02294922 C10.51182261 44.08434392 8.4742898 39.54119836 2.31811523 35.59375 C-0.46205242 34.00344441 -3.26695364 32.47687029 -6.11328125 31.00830078 C-11.23364397 28.27187505 -16.42554989 24.8424817 -19.125 19.5625 C-20.16691355 15.3204234 -20.49194532 12.14339161 -19 8 C-13.98922312 0.44013604 -9.02190898 -1.60649559 0 0 Z " fill="#3E4B5A" transform="translate(354,124)"/>
<path d="M0 0 C1.2432906 0.69203231 2.48552058 1.38597437 3.7265625 2.08203125 C4.85320312 2.69691406 5.97984375 3.31179687 7.140625 3.9453125 C14.44288833 8.20024888 14.44288833 8.20024888 15.69921875 12.10546875 C15.7265625 15.08203125 15.7265625 15.08203125 14.6875 16.828125 C12.00907692 18.54082183 9.41488817 19.27071927 6.3515625 20.14453125 C-1.29579297 22.40693153 -8.84523744 24.93324377 -16.38336182 27.53366089 C-17.67584519 27.97939009 -18.96876817 28.42384679 -20.262146 28.86697388 C-28.4529364 31.63411406 -28.4529364 31.63411406 -36.45703125 34.88671875 C-39.2734375 36.08203125 -39.2734375 36.08203125 -42.2734375 36.08203125 C-43.96994835 31.06689034 -45.66042992 26.04977206 -47.34545898 21.03076172 C-47.9190177 19.32513238 -48.49419388 17.62004603 -49.07104492 15.91552734 C-49.9019301 13.45943361 -50.72689783 11.00141871 -51.55078125 8.54296875 C-51.93676735 7.40823624 -51.93676735 7.40823624 -52.33055115 6.25057983 C-53.6788812 2.20686177 -54.70695788 -1.6737743 -55.2734375 -5.91796875 C-38.31008047 -15.97032847 -16.03264517 -8.67224905 0 0 Z " fill="#F3B537" transform="translate(474.2734375,249.91796875)"/>
<path d="M0 0 C2.55395487 -0.26711404 4.86274374 -0.34849029 7.4140625 -0.29296875 C8.50852188 -0.28660149 8.50852188 -0.28660149 9.62509155 -0.28010559 C11.95876759 -0.26329353 14.2915844 -0.22563868 16.625 -0.1875 C18.20571671 -0.17245634 19.78644693 -0.15876738 21.3671875 -0.14648438 C25.24512344 -0.11338201 29.12241598 -0.06158404 33 0 C32.67 0.66 32.34 1.32 32 2 C31.59360634 6.66425423 32.20760739 9.03526005 34.9375 12.80859375 C35.57792236 13.70989014 36.21834473 14.61118652 36.87817383 15.53979492 C37.57837646 16.4960376 38.2785791 17.45228027 39 18.4375 C40.46267963 20.48406057 41.92490543 22.53094556 43.38671875 24.578125 C44.52439697 26.1569043 44.52439697 26.1569043 45.68505859 27.76757812 C49.45516152 33.03188552 53.12919179 38.36229156 56.8125 43.6875 C58.13038649 45.58801945 59.44931723 47.48781541 60.76953125 49.38671875 C61.32229736 50.18295654 61.87506348 50.97919434 62.44458008 51.79956055 C63.9264867 53.89600135 65.44874317 55.95451163 67 58 C37.98617685 60.34389573 37.98617685 60.34389573 30.51953125 56.83398438 C26.85302675 53.71381333 24.99957842 49.66123204 23.10351562 45.31054688 C21.05963625 41.03106138 18.17620682 37.29331604 15.4375 33.4375 C14.3447276 31.82880843 13.25483888 30.2181539 12.16796875 28.60546875 C10.16595967 25.66507519 8.11775957 22.77516244 5.98828125 19.92578125 C5.52429932 19.3006665 5.06031738 18.67555176 4.58227539 18.03149414 C3.3415156 16.37237298 2.085408 14.72476016 0.828125 13.078125 C-1.25224002 9.57528817 -1.86537809 7.05788901 -2 3 C-1.34 2.01 -0.68 1.02 0 0 Z " fill="#EE5253" transform="translate(176,328)"/>
<path d="M0 0 C1 2 1 2 0.7109375 4.3203125 C0.33123189 7.49041285 0.27172719 9.8794357 1 13 C3.51548625 15.50229314 6.15910676 17.20892097 9.16015625 19.09375 C14.55243585 22.71332696 18.02475545 27.84396876 20 34 C21.06622161 44.95976629 19.93393645 53.27098355 13 62 C11.37284604 63.91013726 10.28356397 64.87894 7.96875 65.8671875 C7.3190625 65.91101563 6.669375 65.95484375 6 66 C5.175 65.05125 4.35 64.1025 3.5 63.125 C1.36580374 60.7512511 0.35443298 60.06037045 -2.84375 59.515625 C-4.94763721 59.42188745 -7.05182388 59.33464537 -9.15625 59.25390625 C-14.32864183 58.79208555 -16.90780892 56.30300002 -20.125 52.46484375 C-22.58968683 47.91030787 -22.60927182 44.34539227 -22.5 39.25 C-22.48791504 38.35692139 -22.47583008 37.46384277 -22.46337891 36.54370117 C-22.26619457 30.00255884 -21.40974565 24.68290941 -18 19 C-17.36384766 17.85724609 -17.36384766 17.85724609 -16.71484375 16.69140625 C-12.5077152 9.74202678 -6.72896552 4.48597701 0 0 Z " fill="#576473" transform="translate(262,270)"/>
<path d="M0 0 C3.70506451 2.55083881 6.36464424 5.47346185 9.125 9 C12.44712834 13.14990118 15.87741697 17.11604552 19.5 21 C23.77196681 25.58944792 27.7656332 30.33513858 31.6875 35.23046875 C33.73940753 37.6879053 35.87856527 40.01600705 38.08862305 42.33081055 C54 59.03486637 54 59.03486637 54 65 C49.83187913 64.74917423 45.66603397 64.47073678 41.5 64.1875 C40.32695312 64.11724609 39.15390625 64.04699219 37.9453125 63.97460938 C27.9921051 63.27564818 19.89099985 61.68973374 13 54 C11.78358247 52.28325649 10.60782718 50.53738873 9.4609375 48.7734375 C6.25251551 43.88949804 2.99758245 39.04361347 -0.3046875 34.22265625 C-1.22676585 32.87188358 -2.14863926 31.52097099 -3.0703125 30.16992188 C-4.4832809 28.09916675 -5.89767888 26.0294612 -7.31640625 23.96264648 C-8.71277252 21.92730948 -10.10299684 19.88789522 -11.4921875 17.84765625 C-11.91611786 17.23302017 -12.34004822 16.61838409 -12.77682495 15.98512268 C-14.96251358 12.76289344 -16.72302491 9.68378231 -18 6 C-12.47914308 1.61463848 -7.26971457 -2.04294899 0 0 Z " fill="#57A1FD" transform="translate(425,98)"/>
<path d="M0 0 C1.63678661 0.69579998 3.22786002 1.4976199 4.8046875 2.3203125 C4.8046875 2.9803125 4.8046875 3.6403125 4.8046875 4.3203125 C3.89650269 4.71017334 3.89650269 4.71017334 2.9699707 5.10791016 C-13.41979004 12.16948043 -29.55282697 19.675922 -45.56884766 27.54296875 C-47.98684475 28.7301113 -50.40834335 29.90957674 -52.83349609 31.08203125 C-56.33428955 32.77604031 -59.82801795 34.48386358 -63.3203125 36.1953125 C-64.35599365 36.69401855 -65.3916748 37.19272461 -66.45874023 37.70654297 C-82.76141538 45.76948854 -95.73323454 56.58096795 -102.58984375 73.828125 C-103.52916918 76.63614379 -104.37282499 79.47587652 -105.1953125 82.3203125 C-113.1153125 81.3303125 -113.1153125 81.3303125 -121.1953125 80.3203125 C-112.33688066 56.05591225 -100.70016793 42.99170317 -77.6953125 31.1953125 C-76.5825293 30.62127686 -75.46974609 30.04724121 -74.32324219 29.45581055 C-62.7742411 23.52767974 -51.10840733 17.83208037 -39.4453125 12.1328125 C-38.49358154 11.66752136 -37.54185059 11.20223022 -36.5612793 10.72283936 C-33.82067539 9.38440901 -31.07865285 8.04894126 -28.3359375 6.71484375 C-27.51712097 6.31539047 -26.69830444 5.91593719 -25.85467529 5.50437927 C-8.85513463 -2.74162531 -8.85513463 -2.74162531 0 0 Z " fill="#E3E8F6" transform="translate(369.1953125,184.6796875)"/>
<path d="M0 0 C5.23705012 1.31513366 8.41431851 3.80013462 12.1875 7.5 C13.32633672 8.58514589 14.46566827 9.6697727 15.60546875 10.75390625 C16.17185059 11.29805176 16.73823242 11.84219727 17.32177734 12.40283203 C19.83770837 14.79724879 22.41819984 17.11422922 25 19.4375 C28.4365053 22.53349791 31.73480927 25.72432712 35 29 C40.74024688 34.40929825 46.83357504 39.31097764 53.12670898 44.05517578 C56.6201928 46.73385717 59.37969683 49.40921417 62 53 C59.8616754 53.71277487 57.72304374 54.42422655 55.58203125 55.12890625 C53.90409491 55.69498765 52.23396133 56.28495158 50.57421875 56.90234375 C42.9184284 59.69445552 42.9184284 59.69445552 39 58 C33.4244167 54.19846594 29.5768737 48.9879849 25.40136719 43.74707031 C22.67424432 40.34719379 19.89658304 36.9886445 17.125 33.625 C16.53050049 32.90207764 15.93600098 32.17915527 15.32348633 31.43432617 C11.03040388 26.22275633 6.68929666 21.05430044 2.28759766 15.93408203 C-0.66366961 12.48133651 -2.14567393 10.55067679 -2.1875 6 C-2.20167969 5.29875 -2.21585938 4.5975 -2.23046875 3.875 C-2 2 -2 2 0 0 Z " fill="#FD6A6A" transform="translate(44,134)"/>
<path d="M0 0 C3.5552959 1.70411993 6.91370268 3.69212764 10.3125 5.6875 C17.65657175 9.94938557 25.25679135 13.52965438 33 17 C30.94226781 24.42949623 26.17428209 30.15524904 19.8046875 34.49609375 C12.37630636 38.35150829 4.00238122 39.44639558 -4.09375 37.10546875 C-6.76067365 36.13286644 -9.3884844 35.11212832 -12 34 C-10.9171875 32.9790625 -10.9171875 32.9790625 -9.8125 31.9375 C-4.11486752 26.20749461 0.03941603 20.2617861 0.1953125 11.9140625 C0.18219489 10.48424307 0.15860452 9.05448466 0.125 7.625 C0.11597656 6.88894531 0.10695313 6.15289062 0.09765625 5.39453125 C0.07430144 3.5962112 0.03843836 1.79806089 0 0 Z " fill="#ED5253" transform="translate(281,303)"/>
<path d="M0 0 C1.25425781 0.00902344 2.50851562 0.01804688 3.80078125 0.02734375 C4.75339844 0.03894531 5.70601563 0.05054688 6.6875 0.0625 C12.21791203 13.2712966 12.21791203 13.2712966 10.6875 20.0625 C8.13705058 23.92931042 5.68180475 25.28454104 1.3125 26.375 C-6.86326887 27.76232157 -12.9530077 26.94771421 -20.3125 23.0625 C-22.29060318 21.51246015 -23.68600581 20.00379952 -25.3125 18.0625 C-25.6425 17.7325 -25.9725 17.4025 -26.3125 17.0625 C-26.8662525 13.09394043 -26.50809112 11.37796955 -24.375 7.9375 C-18.07308054 1.09695495 -8.80387437 -0.0822792 0 0 Z " fill="#414D5A" transform="translate(486.3125,199.9375)"/>
<path d="M0 0 C5.10218458 1.52579615 8.33228179 4.69067901 12.1875 8.1875 C24.15252792 19.17357764 24.15252792 19.17357764 39 25 C40.91373516 24.7845296 42.82646135 24.55997499 44.73828125 24.328125 C48.79997853 24.29305686 50.40865628 24.47775855 53.48828125 27.19750977 C55.82553396 30.30193071 57.83870838 33.46563595 59.8125 36.8125 C60.53344846 37.9456968 61.25803319 39.0765888 61.98632812 40.20507812 C65.67224012 46.10041287 65.67224012 46.10041287 67 49 C66.67 49.99 66.34 50.98 66 52 C57.96406674 53.09580908 51.30013089 49.18960552 45.00341797 44.51904297 C39.87523769 40.49682395 34.93468275 36.25551082 30 32 C27.77441566 30.0999345 25.54367472 28.20599461 23.3125 26.3125 C22.80090332 25.87583008 22.28930664 25.43916016 21.76220703 24.98925781 C17.17058214 21.08991757 12.4437302 17.37221017 7.66723633 13.70239258 C4.57305889 11.30977297 1.57817382 8.9518222 -1 6 C-1.3125 3.3125 -1.3125 3.3125 -1 1 C-0.67 0.67 -0.34 0.34 0 0 Z " fill="#566473" transform="translate(113,193)"/>
<path d="M0 0 C5.74520847 2.11692528 10.49404907 5.43006355 15.5625 8.8125 C16.50802734 9.42931641 17.45355469 10.04613281 18.42773438 10.68164062 C27.26111176 16.55599265 30.56122502 21.50559446 33.8125 31.5 C34.13669922 32.43714844 34.46089844 33.37429687 34.79492188 34.33984375 C35.09591797 35.24863281 35.39691406 36.15742188 35.70703125 37.09375 C36.11659058 38.32641602 36.11659058 38.32641602 36.53442383 39.58398438 C37.07461542 42.38720198 36.79591261 44.27269217 36 47 C34.193913 49.02621949 32.19582841 50.36480863 30 52 C29.75765625 51.03578125 29.5153125 50.0715625 29.265625 49.078125 C28.93046875 47.81484375 28.5953125 46.5515625 28.25 45.25 C27.76273437 43.37054688 27.76273437 43.37054688 27.265625 41.453125 C24.83068458 34.80964557 19.38026121 32.15706607 13.625 28.5625 C-1.59628243 19.03598556 -1.59628243 19.03598556 -3 13 C-3.58483008 7.77906242 -3.25605581 4.34140774 0 0 Z " fill="#566473" transform="translate(359,128)"/>
<path d="M0 0 C10.31173455 1.87486083 18.91173104 5.99887417 28 11 C29.13179688 11.61617187 30.26359375 12.23234375 31.4296875 12.8671875 C38.71925563 17.12732472 38.71925563 17.12732472 39.97265625 21.0234375 C40 24 40 24 39.03515625 25.71875 C36.03728897 27.60608295 32.81262364 28.52670853 29.4375 29.5 C28.77169922 29.69980469 28.10589844 29.89960938 27.41992188 30.10546875 C26.0401382 30.51848312 24.65907918 30.92725788 23.27685547 31.33203125 C20.67222031 32.09616183 18.07232198 32.87538795 15.47265625 33.65625 C14.6206665 33.91212891 13.76867676 34.16800781 12.89086914 34.43164062 C12.26688232 34.61919922 11.64289551 34.80675781 11 35 C9.58541802 31.14368489 8.17993173 27.28418436 6.7824707 23.42163086 C6.30671622 22.11052314 5.82856807 20.80028126 5.34790039 19.4909668 C4.65388828 17.59918922 3.96943996 15.70391193 3.28515625 13.80859375 C2.66459351 12.10401001 2.66459351 12.10401001 2.03149414 10.36499023 C0.97144604 6.90684988 0.41682939 3.58792377 0 0 Z " fill="#FDCA56" transform="translate(450,241)"/>
<path d="M0 0 C1.60773999 3.03803236 2.78842138 6.08724296 3.8918457 9.34082031 C4.25595047 10.41003723 4.62005524 11.47925415 4.99519348 12.58087158 C5.38478745 13.73496521 5.77438141 14.88905884 6.17578125 16.078125 C6.58281784 17.27749695 6.98985443 18.4768689 7.40922546 19.71258545 C8.27216913 22.25747746 9.13398572 24.80271772 9.99389648 27.34863281 C11.07989128 30.56361149 12.17006389 33.77715343 13.26156044 36.99026775 C20.81102272 59.21974533 20.81102272 59.21974533 24.07421875 69.44140625 C24.44506592 70.60099854 24.81591309 71.76059082 25.19799805 72.95532227 C26.72517573 78.75301872 27.11472138 83.67766378 24.5 89.125 C24.005 89.74375 23.51 90.3625 23 91 C19.87465497 87.44129081 18.18680873 84.38788334 16.75756836 79.88378906 C16.36713852 78.67192932 15.97670868 77.46006958 15.57444763 76.21148682 C15.16270361 74.89626508 14.75117434 73.58097609 14.33984375 72.265625 C13.90530687 70.90396845 13.46978905 69.54262459 13.03334045 68.18157959 C11.88897511 64.60418524 10.75756195 61.02282565 9.62896729 57.44042969 C8.48604458 53.81987976 7.33158585 50.20301629 6.17773438 46.5859375 C4.8769564 42.50656709 3.5772878 38.42687702 2.28660583 34.34429932 C1.89932816 33.11983093 1.51205048 31.89536255 1.11303711 30.63378906 C0.75080048 29.48769165 0.38856384 28.34159424 0.01535034 27.1607666 C-1.09244498 23.71222052 -2.25462656 20.2855794 -3.46018982 16.87005615 C-4.63649164 12.79501176 -4.84320125 8.92001671 -3.09765625 4.9453125 C-2.14177679 3.25126278 -1.07896104 1.61844156 0 0 Z " fill="#586573" transform="translate(420,250)"/>
<path d="M0 0 C4.05177478 0.2476635 6.38370566 0.48924843 9.5546875 3.1171875 C10.32039063 4.02726562 11.08609375 4.93734375 11.875 5.875 C13.15697266 7.37353516 13.15697266 7.37353516 14.46484375 8.90234375 C15.31265477 9.93263172 16.15778725 10.96513068 17 12 C18.11568359 13.36318359 18.11568359 13.36318359 19.25390625 14.75390625 C20.72398742 16.56060708 22.19006388 18.37057303 23.65234375 20.18359375 C26.17873732 23.2144253 28.8131626 26.11224279 31.5 29 C36.58674659 34.46978207 41.31640545 40.18070416 46 46 C47.01780854 47.21088229 48.03803358 48.41974538 49.0625 49.625 C51 52 51 52 51 53 C44.32491898 53.55625675 39.52014095 52.90853444 34 49 C27.70617975 42.86664776 22.89261215 35.70965283 18.125 28.375 C16.73184555 26.25646128 15.33861639 24.13797169 13.9453125 22.01953125 C12.94032715 20.48353271 12.94032715 20.48353271 11.91503906 18.91650391 C10.20548274 16.31293942 8.4804507 13.72116979 6.7421875 11.13671875 C6.27151855 10.43691895 5.80084961 9.73711914 5.31591797 9.01611328 C4.45921463 7.74425055 3.60151799 6.47305613 2.74267578 5.20263672 C0 1.11078971 0 1.11078971 0 0 Z " fill="#89C1FF" transform="translate(420,98)"/>
<path d="M0 0 C3.64878426 5.47317638 5.23678691 11.46784389 4 18 C1.5 21.0625 1.5 21.0625 -1 23 C-6.20859221 20.81965907 -9.01082662 18.7102126 -12 14 C-12.3125 10.5 -12.3125 10.5 -11 7 C-7.73481883 3.77101818 -4.35771474 1.45257158 0 0 Z " fill="#566473" transform="translate(493,202)"/>
</svg>
